<svg width="170" height="145" viewBox="0 0 170 145" fill="none" xmlns="http://www.w3.org/2000/svg">
<path d="M167.882 141.734L160.429 130.155L101.398 37.5236L85.0002 11.6936L68.6027 37.5236L9.57162 130.155L2.11821 141.734L0.03125 145H169.969L167.882 141.734ZM76.6524 42.5708L85.0002 29.2105L93.348 42.5708L149.1 130.155L152.677 135.499H17.3232L20.9008 130.155L76.6524 42.5708Z" fill="#F5AF19"/>
<path opacity="0.1" d="M101.398 37.5236C99.0125 39.6018 96.3292 41.3832 93.3479 42.5708L85.0001 29.2105L76.6522 42.5708C73.6709 41.3832 70.9876 39.6018 68.6025 37.5236L85.0001 11.6936L101.398 37.5236Z" fill="black"/>
<path d="M105.572 20.6006C105.572 31.8826 96.3293 41.0864 85.0001 41.0864C73.671 41.0864 64.4287 31.8826 64.4287 20.6006C64.4287 9.31853 73.671 0.114746 85.0001 0.114746C96.3293 0.114746 105.572 9.31853 105.572 20.6006Z" fill="#FFC84D"/>
<path opacity="0.2" d="M167.882 141.734H2.11816L9.57158 130.155H20.9008L17.3231 135.499H152.677L149.398 130.155H160.429L167.882 141.734Z" fill="black"/>
<path d="M169.969 133.124H0.03125V144.703H169.969V133.124Z" fill="#FFC84D"/>
<path opacity="0.2" fill-rule="evenodd" clip-rule="evenodd" d="M84.9995 36.336C93.6454 36.336 100.801 29.2105 100.801 20.6005C100.801 16.7408 99.6082 13.475 97.2231 10.506C97.2187 10.5012 97.2143 10.4964 97.21 10.4917C94.2295 7.2332 90.0604 4.86499 84.9995 4.86499C76.3535 4.86499 69.1982 11.9905 69.1982 20.6005C69.1982 25.3508 71.5833 29.8043 75.161 32.7732C77.8442 35.1484 81.1237 36.336 84.9995 36.336Z" fill="white"/>
</svg>
