<svg width="192" height="192" viewBox="0 0 192 192" fill="none" xmlns="http://www.w3.org/2000/svg">
<path opacity="0.2" d="M57.5402 188.232L3.2793 133.9V57.301L57.5402 3.26587H134.459L189.018 57.301V133.9L134.459 188.232H57.5402Z" fill="#F5AF19"/>
<path d="M135.95 0H56.3478L0 56.1134V135.385L48.5963 183.779L56.3478 191.498H135.95L147.578 179.919L192.298 135.385V56.1134L135.95 0ZM185.739 132.713L150.857 167.449L144 174.278L133.267 184.966H59.0311L52.1739 178.138L45.3168 171.309L6.26087 132.713V58.4885L59.0311 6.23482H133.267L185.739 58.4885V132.713V132.713Z" fill="#F5AF19"/>
<path d="M135.95 3.85958L105.838 76.0053L98.9808 92.6315L98.0864 94.7098L97.7883 95.6005L97.4902 96.1943L95.9995 95.6005L94.5088 95.0067L94.8069 94.4129L95.1051 93.5222L95.9995 91.4439L103.155 74.8178L132.968 2.672L135.95 3.85958Z" fill="#F5AF19"/>
<path d="M189.614 58.7855L117.167 88.772L100.174 95.6006L98.0866 96.4913L97.1921 96.7882L96.5959 97.0851L95.9996 95.6006L95.4033 94.1161L95.9996 93.8192L96.894 93.5223L98.981 92.6317L115.975 85.803L188.422 55.8165L189.614 58.7855Z" fill="#F5AF19"/>
<path d="M189.614 132.416L188.422 135.385L115.975 105.398L98.981 98.5695L96.894 97.6788L95.9996 97.3819L95.4033 97.0851L95.9996 95.6006L96.5959 94.1161L97.1921 94.413L98.0866 94.7099L100.174 95.6006L117.167 102.726L189.614 132.416Z" fill="#F5AF19"/>
<path d="M135.95 187.638L132.968 188.826L103.155 116.383L95.9995 99.757L95.1051 97.6788L94.8069 96.7881L94.5088 96.1943L95.9995 95.6005L97.4902 95.0067L97.7883 95.6005L98.0864 96.4912L98.9808 98.5695L105.838 115.196L135.95 187.638Z" fill="#F5AF19"/>
<path d="M97.4908 96.1943L97.1927 96.7881L96.8945 97.6788L96.0001 99.757L89.143 116.383L59.0312 188.826L56.0498 187.638L86.1616 115.196L93.0188 98.5695L93.9132 96.4912L94.5094 95.6005V95.0067L96.0001 95.6005L97.4908 96.1943Z" fill="#F5AF19"/>
<path d="M96.5957 97.0851L95.9994 97.3819L95.105 97.6788L93.018 98.5695L76.3224 105.398L3.87516 135.385L2.68262 132.416L75.1298 102.726L91.8255 95.6006L93.9124 94.7099L94.8068 94.413L95.4031 94.1161L95.9994 95.6006L96.5957 97.0851Z" fill="#F5AF19"/>
<path d="M96.5957 94.1161L95.9994 95.6006L95.4031 97.0851L94.8068 96.7882L93.9124 96.4913L91.8255 95.6006L75.1298 88.772L2.68262 58.7855L3.87516 55.8165L76.3224 85.803L93.018 92.6317L95.105 93.5223L95.9994 93.8192L96.5957 94.1161Z" fill="#F5AF19"/>
<path d="M97.4908 95.0067L96.0001 95.6005L94.5094 96.1943V95.6005L93.9132 94.7098L93.0188 92.6315L86.1616 76.0053L56.0498 3.85958L59.0312 2.672L89.143 74.8178L96.0001 91.4439L96.8945 93.5222L97.1927 94.4129L97.4908 95.0067Z" fill="#F5AF19"/>
</svg>
