<svg width="20" height="21" viewBox="0 0 20 21" fill="none" xmlns="http://www.w3.org/2000/svg">
<path fill-rule="evenodd" clip-rule="evenodd" d="M20.0001 10.7418C20.0001 9.99854 19.9371 9.27887 19.8167 8.5946H10.2036V12.6589H15.6952C15.4601 13.9744 14.7379 15.0834 13.6602 15.8266V18.4634H16.9563C18.8881 16.6289 20.0001 13.939 20.0001 10.7418Z" fill="#3E82F1"/>
<path fill-rule="evenodd" clip-rule="evenodd" d="M10.2036 21C12.9608 21 15.2709 20.062 16.9562 18.4575L13.6602 15.8207C12.7487 16.4519 11.5793 16.8236 10.2036 16.8236C7.5438 16.8236 5.29674 14.9772 4.49422 12.4938H1.0835V15.2191C2.76306 18.6463 6.21391 21 10.2036 21Z" fill="#32A753"/>
<path fill-rule="evenodd" clip-rule="evenodd" d="M4.49412 12.4938C4.28776 11.8626 4.17312 11.1901 4.17312 10.4999C4.17312 9.80977 4.28776 9.1373 4.49412 8.50612V5.78674H1.0834C0.395529 7.20247 0 8.80697 0 10.4999C0 12.1929 0.395529 13.7974 1.0834 15.2131L4.49412 12.4938Z" fill="#F9BB00"/>
<path fill-rule="evenodd" clip-rule="evenodd" d="M10.2036 4.1764C11.6997 4.1764 13.0468 4.7073 14.1016 5.74551L17.0308 2.73118C15.2652 1.0382 12.9551 0 10.2036 0C6.21391 0 2.76306 2.35365 1.0835 5.7868L4.49422 8.50618C5.29674 6.02275 7.5438 4.1764 10.2036 4.1764Z" fill="#E74133"/>
</svg>
