<svg width="64" height="64" viewBox="0 0 64 64" fill="none" xmlns="http://www.w3.org/2000/svg">
<path d="M16.3062 45.7142L26.3736 54.857H32L34.8132 45.7142L32 36.5713H26.3736L16.3062 45.7142Z" fill="#7F2515"/>
<path d="M0.612366 36.5713V54.857H6.23874L16.3062 45.7142L6.23874 36.5713H0.612366Z" fill="#BF3820"/>
<path d="M16.3062 45.7142L0.612366 54.8571L16.3062 64L19.1194 54.8571L16.3062 45.7142Z" fill="#7F2515"/>
<path d="M32 36.5713L21.9326 27.4286H16.3062L0.612366 36.5713L16.3062 45.7142L32 36.5713Z" fill="#FE684D"/>
<path d="M16.3062 45.7142V64L32 54.8571L16.3062 45.7142Z" fill="#40130B"/>
<path d="M16.3062 9.14294V27.4287H21.9326L32 18.2858L21.9326 9.14294H16.3062Z" fill="#FE684D"/>
<path d="M16.3062 27.4286L32 36.5714L34.8132 27.4286L32 18.2858L16.3062 27.4286Z" fill="#FF4B2B"/>
<path d="M37.6264 36.5714H32V54.8572H37.6264L47.6937 45.7143L37.6264 36.5714Z" fill="#FF4B2B"/>
<path d="M63.3876 36.5713V54.857H57.7613L47.6938 45.7142L57.7613 36.5713H63.3876Z" fill="#BF3820"/>
<path d="M47.6937 45.7142L63.3876 54.8571L47.6937 64L44.8806 54.8571L47.6937 45.7142Z" fill="#7F2515"/>
<path d="M32 36.5713L42.0674 27.4286H47.6937L63.3876 36.5713L47.6937 45.7142L32 36.5713Z" fill="#FE684D"/>
<path d="M47.6937 45.7142V64L32 54.8571L47.6937 45.7142Z" fill="#BF3820"/>
<path d="M47.6937 27.4287V9.14294H42.0674L32 18.2858L42.0674 27.4287H47.6937Z" fill="#FE684D"/>
<path d="M47.6937 9.14287L32 0L16.3062 9.14287L32 18.2857L47.6937 9.14287Z" fill="#FF9E8D"/>
<path d="M32 18.2858V36.5714L47.6937 27.4286L32 18.2858Z" fill="#BF3820"/>
</svg>
