<svg width="16" height="14" viewBox="0 0 16 14" fill="none" xmlns="http://www.w3.org/2000/svg">
<path fill-rule="evenodd" clip-rule="evenodd" d="M3.96933 8.0958L0.282607 6.71295C-0.0918466 6.57193 -0.0950999 6.04066 0.278287 5.89594L15.4087 0.0300408C15.7295 -0.0946299 16.0604 0.187782 15.9906 0.526312L13.2753 13.6522C13.2113 13.9621 12.8498 14.1026 12.5946 13.9162L8.88801 11.2118C8.66289 11.0475 8.35606 11.0563 8.14064 11.2327L6.0856 12.9164C5.84704 13.1124 5.48763 13.0032 5.39632 12.7078L3.96933 8.0958ZM12.3719 2.90009L5.16662 7.35988C4.89046 7.53118 4.76043 7.86634 4.84966 8.1801L5.6287 10.9311C5.68401 11.126 5.96556 11.106 5.99238 10.9046L6.19494 9.39599C6.23313 9.11197 6.36796 8.8503 6.57697 8.65477L12.5234 3.0998C12.6346 2.99614 12.5014 2.82017 12.3719 2.90009Z" fill="#FF4B2B"/>
</svg>
