<svg width="16" height="12" viewBox="0 0 16 12" fill="none" xmlns="http://www.w3.org/2000/svg">
<g clip-path="url(#clip0)">
<path fill-rule="evenodd" clip-rule="evenodd" d="M11.6961 0.000488281C13.7325 0.00048837 14.7988 0.29894 15.3764 1.03061C15.9566 1.76551 16 2.89117 16 4.52451V7.47652C16 9.3482 15.723 10.4293 15.0738 11.0914C14.4407 11.7371 13.4621 12.0005 11.6961 12.0005H4.30379C0.665601 12.0005 -1.53356e-08 10.477 0 7.47652L1.50876e-08 4.52451C2.30034e-08 2.97571 5.96046e-08 1.85666 0.560982 1.09716C1.13636 0.318191 2.22075 0.0004886 4.3038 0.000489378L11.6961 0.000488281ZM6.91536 8.27702L10.2722 6.40738C10.4427 6.31244 10.5495 6.12427 10.5493 5.91911C10.549 5.71411 10.4418 5.52622 10.271 5.43172L6.91417 3.57413C6.75422 3.48557 6.56248 3.49239 6.40831 3.59217C6.2542 3.69194 6.16016 3.87016 6.16016 4.06223V7.78952C6.16016 7.98192 6.25445 8.1603 6.40888 8.26002C6.49089 8.31294 6.58349 8.33955 6.67629 8.33955C6.75825 8.33955 6.84031 8.31882 6.91536 8.27702Z" fill="#FF4B2B"/>
</g>
<defs>
<clipPath id="clip0">
<rect width="16" height="12" fill="white"/>
</clipPath>
</defs>
</svg>
